<?xml version="1.0" encoding="UTF-8" standalone="no"?>
<!-- Created with Inkscape (http://www.inkscape.org/) -->

<svg
   version="1.1"
   id="svg2"
   width="266.66666"
   height="266.66666"
   viewBox="0 0 266.66666 266.66666"
   sodipodi:docname="favicon.ai"
   xmlns:inkscape="http://www.inkscape.org/namespaces/inkscape"
   xmlns:sodipodi="http://sodipodi.sourceforge.net/DTD/sodipodi-0.dtd"
   xmlns="http://www.w3.org/2000/svg"
   xmlns:svg="http://www.w3.org/2000/svg">
  <defs
     id="defs6">
    <clipPath
       clipPathUnits="userSpaceOnUse"
       id="clipPath16">
      <path
         d="M 0,200 H 200 V 0 H 0 Z"
         id="path14" />
    </clipPath>
  </defs>
  <sodipodi:namedview
     id="namedview4"
     pagecolor="#ffffff"
     bordercolor="#000000"
     borderopacity="0.25"
     inkscape:showpageshadow="2"
     inkscape:pageopacity="0.0"
     inkscape:pagecheckerboard="0"
     inkscape:deskcolor="#d1d1d1" />
  <g
     id="g8"
     inkscape:groupmode="layer"
     inkscape:label="favicon"
     transform="matrix(1.3333333,0,0,-1.3333333,0,266.66667)">
    <g
       id="g10">
      <g
         id="g12"
         clip-path="url(#clipPath16)">
        <g
           id="g18"
           transform="translate(190.5615,115.354)">
          <path
             d="m 0,0 c -12.842,19.772 -49.234,33.057 -90.561,33.057 -52.554,0 -95.311,-21.567 -95.311,-48.078 0,-0.303 0.021,-0.604 0.041,-0.905 l 0.024,-0.387 c 0.01,-0.184 0.116,-0.352 0.283,-0.445 0.09,-0.051 0.192,-0.076 0.295,-0.076 0.085,0 0.171,0.017 0.251,0.054 12.5,5.74 69.521,6.034 70.089,6.036 0.094,-10e-4 1.248,-0.007 3.262,-0.004 v 9.921 h 0.161 l 4.513,-7.81 v -2.087 c 1.496,0.012 3.176,0.029 5.016,0.054 l -9.206,15.388 c -1.288,2.188 -1.691,3.358 -4.349,4.219 -1.371,0.467 -2.418,0.779 -2.418,2.498 0,2.342 2.418,2.342 4.11,2.421 h 20.702 l 14.206,-23.949 c 1.497,0.055 3.02,0.115 4.563,0.18 v 9.632 c 0,11.17 -6.605,8.202 -6.605,11.794 0,2.186 2.658,2.343 3.461,2.343 h 10.956 c 0.807,0 3.464,-0.157 3.464,-2.343 0,-3.592 -6.604,-0.624 -6.604,-11.794 v -9.422 c 24.625,1.176 53.268,3.661 69.352,8.895 0.166,0.054 0.297,0.177 0.357,0.334 C 0.111,-0.316 0.092,-0.142 0,0"
             style="fill:#009540;fill-opacity:1;fill-rule:nonzero;stroke:none"
             id="path20" />
        </g>
        <g
           id="g22"
           transform="translate(194.0752,106.918)">
          <path
             d="M 0,0 C -0.1,0.286 -0.429,0.441 -0.729,0.348 -0.743,0.344 -0.757,0.339 -0.77,0.334 c -0.034,0 -0.069,-0.002 -0.104,-0.009 -22.188,-3.937 -47.091,-5.958 -72.297,-5.898 v -5.249 h -0.161 l -3.013,5.269 c -0.393,0.004 -0.786,0.003 -1.179,0.008 -0.863,-0.008 -1.712,-0.016 -2.561,-0.024 l 6.914,-11.656 v -18.901 h -12.003 l -18.106,30.264 c -2.465,-0.04 -4.86,-0.083 -7.187,-0.129 v -17.795 c 1.288,-9.761 6.444,-6.717 6.444,-10.075 0,-2.42 -3.303,-2.265 -4.19,-2.265 h -9.182 c -0.887,0 -4.189,-0.155 -4.189,2.265 0,3.358 5.155,0.314 6.443,10.075 V -6.09 c -41.813,-0.946 -60.47,-3.063 -72.602,-8.888 -0.252,-0.121 -0.375,-0.396 -0.289,-0.65 7.732,-23.005 47.247,-39.701 93.957,-39.701 52.554,0 95.309,21.398 95.309,47.7 C 1.234,-4.699 0.889,-2.56 0,0"
             style="fill:#2f4f8f;fill-opacity:1;fill-rule:nonzero;stroke:none"
             id="path24" />
        </g>
      </g>
    </g>
  </g>
</svg>
