<?xml version="1.0" encoding="utf-8"?>
<!-- Generator: Adobe Illustrator 24.0.0, SVG Export Plug-In . SVG Version: 6.00 Build 0)  -->
<svg version="1.1" id="Capa_1" xmlns="http://www.w3.org/2000/svg" xmlns:xlink="http://www.w3.org/1999/xlink" x="0px" y="0px"
	 viewBox="0 0 165 39.8" style="enable-background:new 0 0 165 39.8;" xml:space="preserve">
<style type="text/css">
	.st0{fill:#009341;}
	.st1{fill:#2F508E;}
</style>
<g>
	<g>
		<g>
			<path class="st0" d="M102.6,34.3v0.9h-2.8v-0.9h0.7l-0.3-1h-1.5l-0.3,1h0.7v0.9h-2.5v-0.9h0.7l1.1-3.7h-0.7v-0.9h3.7v0.9h-0.8
				l1.2,3.7H102.6z M100.1,32.5l-0.5-1.7l-0.5,1.7H100.1z"/>
			<path class="st0" d="M107.6,31.3v0.9H107v2.9c0,1.3-0.7,1.9-2,1.9c-0.8,0-1.4-0.1-1.7-0.4l0.6-0.8c0.3,0.2,0.6,0.3,0.9,0.3
				c0.3,0,0.5-0.1,0.7-0.2c0.2-0.1,0.3-0.4,0.3-0.8v-0.3c-0.4,0.4-0.8,0.5-1.2,0.5c-0.5,0-0.8-0.2-1.2-0.6c-0.3-0.4-0.5-0.9-0.5-1.4
				c0-0.6,0.2-1.1,0.5-1.4c0.3-0.4,0.7-0.6,1.2-0.6c0.5,0,0.8,0.2,1.1,0.5v-0.5H107.6z M105.8,33.3c0-0.3-0.1-0.6-0.2-0.7
				c-0.1-0.2-0.3-0.3-0.6-0.3c-0.2,0-0.4,0.1-0.6,0.3c-0.1,0.2-0.2,0.4-0.2,0.7s0.1,0.5,0.2,0.7c0.1,0.2,0.3,0.3,0.6,0.3
				c0.2,0,0.4-0.1,0.6-0.3C105.7,33.9,105.8,33.6,105.8,33.3z"/>
			<path class="st0" d="M110.7,34.3v0.9H108v-0.9h0.7v-2.1H108v-0.9h1.8v1c0.1-0.3,0.2-0.5,0.5-0.7c0.2-0.2,0.5-0.3,0.9-0.3
				c0.1,0,0.1,0,0.2,0v1.2c-0.3,0-0.6,0-0.8,0.1c-0.2,0.1-0.4,0.2-0.5,0.5c-0.1,0.2-0.2,0.5-0.2,0.8v0.5H110.7z"/>
			<path class="st0" d="M113.8,35.3c-0.6,0-1.1-0.2-1.5-0.5c-0.4-0.4-0.6-0.9-0.6-1.5c0-0.6,0.2-1.1,0.6-1.5
				c0.4-0.4,0.9-0.5,1.5-0.5c0.6,0,1.1,0.2,1.5,0.5c0.4,0.4,0.6,0.9,0.6,1.5c0,0.6-0.2,1.1-0.6,1.5
				C114.9,35.1,114.4,35.3,113.8,35.3z M113.8,34.4c0.2,0,0.4-0.1,0.6-0.3c0.1-0.2,0.2-0.5,0.2-0.8c0-0.3-0.1-0.6-0.2-0.8
				c-0.1-0.2-0.3-0.3-0.6-0.3c-0.5,0-0.8,0.4-0.8,1.1c0,0.3,0.1,0.6,0.2,0.8C113.4,34.3,113.6,34.4,113.8,34.4z"/>
			<path class="st0" d="M119,36.1V37h-2.7v-0.9h0.7v-3.9h-0.5v-0.9h1.8v0.5c0.3-0.4,0.7-0.5,1.2-0.5c0.5,0,0.9,0.2,1.2,0.6
				c0.3,0.4,0.4,0.9,0.4,1.4c0,0.6-0.2,1.1-0.5,1.4c-0.3,0.4-0.7,0.6-1.2,0.6c-0.4,0-0.8-0.2-1.1-0.5v1.3H119z M119.8,33.3
				c0-0.3-0.1-0.6-0.2-0.8c-0.1-0.2-0.3-0.3-0.6-0.3c-0.2,0-0.4,0.1-0.6,0.3c-0.1,0.2-0.2,0.4-0.2,0.8c0,0.3,0.1,0.6,0.2,0.7
				c0.1,0.2,0.3,0.3,0.6,0.3c0.2,0,0.4-0.1,0.5-0.3C119.7,33.9,119.8,33.7,119.8,33.3z"/>
			<path class="st0" d="M124.8,34.1l1,0.3c-0.4,0.6-1,1-1.9,1c-0.7,0-1.2-0.2-1.6-0.5c-0.4-0.4-0.6-0.8-0.6-1.4
				c0-0.6,0.2-1.1,0.6-1.5c0.4-0.4,0.9-0.6,1.5-0.6c0.4,0,0.8,0.1,1.2,0.3c0.3,0.2,0.5,0.5,0.7,0.8c0.1,0.3,0.2,0.7,0.2,1.1h-2.9
				c0,0.4,0.1,0.6,0.3,0.8c0.2,0.1,0.4,0.2,0.6,0.2C124.2,34.5,124.5,34.4,124.8,34.1z M124.5,32.9c0-0.2-0.1-0.4-0.3-0.6
				c-0.1-0.2-0.3-0.2-0.6-0.2c-0.5,0-0.7,0.3-0.8,0.8H124.5z"/>
			<path class="st0" d="M130.4,31.3v1.6h-0.9c-0.2-0.4-0.5-0.7-0.9-0.7c-0.3,0-0.5,0.1-0.7,0.3c-0.2,0.2-0.2,0.4-0.2,0.7
				c0,0.4,0.1,0.6,0.3,0.8c0.2,0.2,0.4,0.3,0.6,0.3c0.2,0,0.4-0.1,0.6-0.2c0.2-0.1,0.3-0.3,0.4-0.5l1,0.4c-0.4,0.8-1,1.2-1.9,1.2
				c-0.7,0-1.2-0.2-1.6-0.6c-0.4-0.4-0.6-0.9-0.6-1.5c0-0.6,0.2-1.1,0.6-1.5c0.4-0.4,0.9-0.5,1.4-0.5c0.4,0,0.8,0.1,1.2,0.4v-0.3
				H130.4z"/>
			<path class="st0" d="M135.7,34.3v0.9h-1.9v-0.3c-0.4,0.3-0.8,0.4-1.1,0.4c-0.4,0-0.7-0.1-0.9-0.3c-0.2-0.2-0.3-0.5-0.3-0.9v-1.8
				h-0.6v-0.9h1.8v2.4c0,0.2,0,0.3,0.1,0.4c0.1,0.1,0.2,0.1,0.3,0.1c0.2,0,0.4-0.1,0.7-0.3v-1.8h-0.6v-0.9h1.8v3H135.7z"/>
			<path class="st0" d="M140.5,34.3v0.9h-1.9v-0.3c-0.3,0.2-0.7,0.4-1.1,0.4c-0.4,0-0.7-0.1-1-0.3c-0.3-0.2-0.4-0.5-0.4-0.9
				c0-0.4,0.1-0.7,0.4-0.9c0.3-0.3,0.7-0.4,1.1-0.4c0.3,0,0.6,0.1,0.9,0.2v-0.2c0-0.2-0.1-0.4-0.2-0.5c-0.1-0.1-0.3-0.2-0.5-0.2
				c-0.3,0-0.5,0.1-0.7,0.3l-1-0.2c0.3-0.6,0.9-0.9,1.9-0.9c0.4,0,0.7,0,0.9,0.1c0.2,0.1,0.4,0.2,0.6,0.3c0.1,0.1,0.2,0.3,0.3,0.4
				c0,0.2,0.1,0.4,0.1,0.8v1.4H140.5z M138.7,33.8c-0.3-0.2-0.5-0.3-0.7-0.3c-0.1,0-0.3,0-0.4,0.1c-0.1,0.1-0.2,0.2-0.2,0.4
				c0,0.1,0,0.3,0.1,0.4c0.1,0.1,0.2,0.2,0.4,0.2c0.2,0,0.5-0.1,0.8-0.4V33.8z"/>
			<path class="st0" d="M143.6,34.3v0.9h-2.7v-0.9h0.7v-2.1h-0.7v-0.9h1.8v1c0.1-0.3,0.2-0.5,0.5-0.7c0.2-0.2,0.5-0.3,0.9-0.3
				c0.1,0,0.1,0,0.2,0v1.2c-0.3,0-0.6,0-0.8,0.1c-0.2,0.1-0.4,0.2-0.5,0.5c-0.1,0.2-0.2,0.5-0.2,0.8v0.5H143.6z"/>
			<path class="st0" d="M144.9,32.2v-0.9h1.8v3h0.6v0.9h-2.4v-0.9h0.6v-2.1H144.9z M145.5,30.2c0-0.2,0.1-0.3,0.2-0.5
				c0.1-0.1,0.3-0.2,0.5-0.2c0.2,0,0.4,0.1,0.5,0.2c0.1,0.1,0.2,0.3,0.2,0.5c0,0.2-0.1,0.3-0.2,0.5c-0.1,0.1-0.3,0.2-0.5,0.2
				c-0.2,0-0.3-0.1-0.5-0.2C145.5,30.6,145.5,30.4,145.5,30.2z"/>
			<path class="st0" d="M152.2,34.3v0.9h-1.9v-0.3c-0.3,0.2-0.7,0.4-1.1,0.4c-0.4,0-0.7-0.1-1-0.3c-0.3-0.2-0.4-0.5-0.4-0.9
				c0-0.4,0.1-0.7,0.4-0.9c0.3-0.3,0.7-0.4,1.1-0.4c0.3,0,0.6,0.1,0.9,0.2v-0.2c0-0.2-0.1-0.4-0.2-0.5c-0.1-0.1-0.3-0.2-0.5-0.2
				c-0.3,0-0.5,0.1-0.7,0.3l-1-0.2c0.3-0.6,0.9-0.9,1.9-0.9c0.4,0,0.7,0,0.9,0.1c0.2,0.1,0.4,0.2,0.6,0.3c0.1,0.1,0.2,0.3,0.3,0.4
				c0,0.2,0.1,0.4,0.1,0.8v1.4H152.2z M150.3,33.8c-0.3-0.2-0.5-0.3-0.7-0.3c-0.1,0-0.3,0-0.4,0.1c-0.1,0.1-0.2,0.2-0.2,0.4
				c0,0.1,0,0.3,0.1,0.4c0.1,0.1,0.2,0.2,0.4,0.2c0.2,0,0.5-0.1,0.8-0.4V33.8z"/>
		</g>
		<g>
			<path class="st1" d="M88.1,13.6L88.1,13.6l1.3,2.2v6.7c0.4,2.8,1.8,1.9,1.8,2.9c0,0.7-0.9,0.6-1.2,0.6h-2.6c-0.3,0-1.2,0-1.2-0.6
				c0-1,1.5-0.1,1.8-2.9V13.6z M100.1,20.7v5.4h-3.4l-8.4-14c-0.4-0.6-0.5-1-1.2-1.2c-0.4-0.1-0.7-0.2-0.7-0.7
				c0-0.7,0.7-0.7,1.2-0.7h5.9L100.1,20.7z M98.7,13.4c0-3.2-1.9-2.3-1.9-3.4c0-0.6,0.8-0.7,1-0.7h3.1c0.2,0,1,0,1,0.7
				c0,1-1.9,0.2-1.9,3.4v5.4h0l-1.3-2.2V13.4z"/>
			<path class="st1" d="M107.8,15l-2.2,7.6c-0.4,1.4,0,1.7,0.7,2.1c0.4,0.2,0.7,0.3,0.7,0.7c0,0.6-0.7,0.6-1.2,0.6h-2.6
				c-0.5,0-1.3,0-1.3-0.7c0-0.5,0.4-0.5,0.9-0.8c0.5-0.2,1.1-0.8,1.5-2.3l2.8-9.8h0.1L107.8,15z M110.3,21.7h-3.4l0.3-1.3h2.8
				l-2.3-9.8l0.3-1.2h5.1l3.4,14.1c0.1,0.6,0.2,1,0.8,1.3c0.3,0.1,0.6,0.3,0.6,0.7c0,0.6-0.8,0.6-1.3,0.6h-5.7c-0.5,0-1.1,0-1.1-0.6
				c0-0.4,0.1-0.5,0.4-0.6c0.6-0.3,0.7-0.5,0.5-1.4L110.3,21.7z"/>
			<path class="st1" d="M126,23.6c0,0.8,0,1,0.8,1.2c0.3,0.1,0.5,0.3,0.5,0.6c0,0.6-0.8,0.7-0.8,0.7H120c-0.1,0-0.8,0-0.8-0.7
				c0-0.3,0.2-0.5,0.5-0.6c0.8-0.2,0.8-0.4,0.8-1.2V11.9c0-0.8,0-1-0.8-1.2c-0.3-0.1-0.5-0.3-0.5-0.6c0-0.6,0.8-0.7,0.8-0.7h6.5
				c0.1,0,0.8,0,0.8,0.7c0,0.3-0.2,0.5-0.5,0.6c-0.8,0.2-0.8,0.4-0.8,1.2V23.6z"/>
			<path class="st1" d="M136.5,23.6c0,0.8,0,1,0.8,1.2c0.3,0.1,0.5,0.3,0.5,0.6c0,0.6-0.8,0.7-0.8,0.7h-6.5c-0.1,0-0.8,0-0.8-0.7
				c0-0.3,0.2-0.5,0.5-0.6c0.8-0.2,0.8-0.4,0.8-1.2V11.9c0-0.8,0-1-0.8-1.2c-0.3-0.1-0.5-0.3-0.5-0.6c0-0.6,0.8-0.7,0.8-0.7h6.5
				c0.1,0,0.8,0,0.8,0.7c0,0.3-0.2,0.5-0.5,0.6c-0.8,0.2-0.8,0.4-0.8,1.2V23.6z M145.2,23.6c0.2,0.5,0.3,0.9,0.8,1.1
				c0.3,0.2,0.6,0.3,0.6,0.7c0,0.6-0.8,0.6-1.2,0.6h-5.8c-0.5,0-1.2,0-1.2-0.7c0-0.7,0.9-0.6,0.9-1.1c0-0.2-0.1-0.5-0.2-0.7
				l-1.4-4.1c-0.1-0.4-0.3-0.9-0.3-1.4c0-0.5,0.3-0.8,0.5-1.1l2.7-3.7c0.3-0.4,0.6-0.9,0.6-1.4c0-0.6-0.3-0.9-0.9-1.1
				c-0.4-0.2-0.7-0.2-0.7-0.7c0-0.7,0.6-0.7,1.1-0.7h3.9c0.6,0,1.2,0,1.2,0.7c0,0.5-0.4,0.7-0.8,0.8c-1.6,0.6-2.1,1.4-3.1,2.7
				l-0.4,0.6L145.2,23.6z"/>
			<path class="st1" d="M152.9,15l-2.2,7.6c-0.4,1.4,0,1.7,0.7,2.1c0.4,0.2,0.7,0.3,0.7,0.7c0,0.6-0.7,0.6-1.2,0.6h-2.6
				c-0.5,0-1.3,0-1.3-0.7c0-0.5,0.4-0.5,0.9-0.8c0.5-0.2,1.1-0.8,1.5-2.3l2.8-9.8h0.1L152.9,15z M155.4,21.7H152l0.3-1.3h2.8
				l-2.3-9.8l0.3-1.2h5.1l3.4,14.1c0.1,0.6,0.2,1,0.8,1.3c0.3,0.1,0.6,0.3,0.6,0.7c0,0.6-0.8,0.6-1.3,0.6H156c-0.5,0-1.1,0-1.1-0.6
				c0-0.4,0.1-0.5,0.4-0.6c0.6-0.3,0.7-0.5,0.5-1.4L155.4,21.7z"/>
		</g>
	</g>
	<path class="st0" d="M76.5,13.7C71.3,5.8,56.8,0.5,40.2,0.5C19.1,0.5,2,9.1,2,19.8c0,0.1,0,0.2,0,0.4l0,0.2c0,0.1,0,0.1,0.1,0.2
		c0,0,0.1,0,0.1,0c0,0,0.1,0,0.1,0c5-2.3,27.9-2.4,28.1-2.4c0,0,0.5,0,1.3,0v-4h0.1l1.8,3.1V18c0.6,0,1.3,0,2,0l-3.7-6.2
		c-0.5-0.9-0.7-1.3-1.7-1.7c-0.5-0.2-1-0.3-1-1c0-0.9,1-0.9,1.6-1h8.3l5.7,9.6c0.6,0,1.2,0,1.8-0.1v-3.9c0-4.5-2.6-3.3-2.6-4.7
		c0-0.9,1.1-0.9,1.4-0.9h4.4c0.3,0,1.4,0.1,1.4,0.9c0,1.4-2.6,0.3-2.6,4.7v3.8c9.9-0.5,21.3-1.5,27.8-3.6c0.1,0,0.1-0.1,0.1-0.1
		C76.5,13.9,76.5,13.8,76.5,13.7z"/>
	<path class="st1" d="M77.9,17.1c0-0.1-0.2-0.2-0.3-0.1c0,0,0,0,0,0c0,0,0,0,0,0c-8.9,1.6-18.9,2.4-29,2.4v2.1h-0.1l-1.2-2.1
		c-0.2,0-0.3,0-0.5,0c-0.3,0-0.7,0-1,0l2.8,4.7v7.6h-4.8l-7.3-12.1c-1,0-1.9,0-2.9,0.1v7.1c0.5,3.9,2.6,2.7,2.6,4
		c0,1-1.3,0.9-1.7,0.9h-3.7c-0.4,0-1.7,0.1-1.7-0.9c0-1.3,2.1-0.1,2.6-4v-7.1C15,19.9,7.5,20.8,2.7,23.1c-0.1,0-0.2,0.2-0.1,0.3
		c3.1,9.2,18.9,15.9,37.7,15.9c21.1,0,38.2-8.6,38.2-19.1C78.4,19,78.2,18.1,77.9,17.1z"/>
</g>
</svg>
